<?xml version="1.0" encoding="UTF-8"?>
<svg id="Layer_2" data-name="Layer 2" xmlns="http://www.w3.org/2000/svg" viewBox="0 0 250 250">
  <defs>
    <style>
      .cls-1 {
        fill: none;
      }

      .cls-1, .cls-2 {
        stroke-width: 0px;
      }

      .cls-2 {
        fill: #38ffdb;
      }
    </style>
  </defs>
  <g id="Layer_1-2" data-name="Layer 1">
    <g>
      <path class="cls-2" d="m78.76,148.01l-21.16-15.38-20.6-14.97c-7.24-5.26-5.52-12.69-4.82-14.84.7-2.15,3.68-9.17,12.63-9.17h19.65l8.08-24.88h-27.73c-16.84,0-31.09,10.34-36.29,26.36-5.2,16.02.24,32.76,13.86,42.66l27.14,19.72,21.16,15.38,28.46,20.68,21.16-15.38-41.54-30.18Zm87.78,3.42l-41.54,30.18-21.16,15.38-20.6,14.97c-7.24,5.26-13.78,1.33-15.61,0-1.83-1.33-7.59-6.33-4.82-14.84l6.07-18.69-21.16-15.38-8.57,26.38c-5.2,16.02.24,32.76,13.86,42.66,13.63,9.9,31.23,9.9,44.85,0l27.14-19.72,21.16-15.38,28.46-20.68-8.08-24.88Zm44.31,37.99l-10.37-31.9-8.08-24.88-10.87-33.45h-26.16l15.87,48.83,8.08,24.88,7.87,24.22c2.77,8.51-2.99,13.52-4.82,14.84-1.83,1.33-8.36,5.26-15.61,0l-15.89-11.55-21.16,15.38,22.44,16.3c6.81,4.95,14.62,7.43,22.43,7.42,7.81,0,15.61-2.47,22.42-7.42,13.62-9.9,19.07-26.64,13.86-42.66Zm30.63-94.28c-5.2-16.02-19.45-26.36-36.29-26.36h-94.88l-8.08,24.88h102.97c8.95,0,11.93,7.02,12.63,9.17.7,2.15,2.42,9.58-4.82,14.84l-15.89,11.55,8.08,24.88,22.44-16.3c13.62-9.9,19.06-26.64,13.86-42.66Z"/>
      <path class="cls-2" d="m169.86,63.24h-26.16l-6.07-18.69c-2.76-8.51-10.36-9.18-12.63-9.18s-9.86.66-12.63,9.18l-7.87,24.22-8.08,24.88-15.87,48.83-21.16-15.38,10.87-33.45,8.08-24.88,10.37-31.91c5.21-16.02,19.45-26.37,36.29-26.37,8.42,0,16.19,2.59,22.51,7.18,6.32,4.59,11.18,11.18,13.78,19.19l8.57,26.38Z"/>
    </g>
    <rect class="cls-1" width="250" height="250"/>
  </g>
</svg>