<?xml version="1.0" encoding="UTF-8"?>
<svg id="Layer_2" data-name="Layer 2" xmlns="http://www.w3.org/2000/svg" viewBox="0 0 250 250">
  <defs>
    <style>
      .cls-1 {
        fill: none;
      }

      .cls-1, .cls-2 {
        stroke-width: 0px;
      }

      .cls-2 {
        fill: #38ffdb;
      }
    </style>
  </defs>
  <g id="Layer_1-2" data-name="Layer 1">
    <g>
      <path class="cls-2" d="m63.17,52.78v58.89c0,3.25,2.64,5.89,5.89,5.89h94.22c3.25,0,5.89,2.64,5.89,5.89v23.56c0,3.25-2.64,5.89-5.89,5.89h-94.22c-3.25,0-5.89,2.64-5.89,5.89v41.22c0,3.25-2.64,5.89-5.89,5.89h-23.56c-3.25,0-5.89-2.64-5.89-5.89V17.44c0-3.25,2.64-5.89,5.89-5.89h129.55c3.25,0,5.89,2.64,5.89,5.89v23.56c0,3.25-2.64,5.89-5.89,5.89h-94.22c-3.25,0-5.89,2.64-5.89,5.89Z"/>
      <rect class="cls-2" x="80.83" y="64.55" width="88.33" height="35.33" rx="5.57" ry="5.57"/>
      <path class="cls-2" d="m222.16,17.44v182.55c0,3.25-2.64,5.89-5.89,5.89h-95.23c-3.12,0-6.12,1.24-8.33,3.45l-28.53,28.53c-1.24,1.24-3.35.36-3.35-1.39v-60.04c0-3.25,2.64-5.89,5.89-5.89h94.22c3.25,0,5.89-2.64,5.89-5.89V17.44c0-3.25,2.64-5.89,5.89-5.89h23.56c3.25,0,5.89,2.64,5.89,5.89Z"/>
    </g>
    <rect class="cls-1" width="250" height="250"/>
  </g>
</svg>