<?xml version="1.0" encoding="UTF-8"?>
<svg id="Layer_2" data-name="Layer 2" xmlns="http://www.w3.org/2000/svg" viewBox="0 0 250 250">
  <defs>
    <style>
      .cls-1 {
        fill: none;
      }

      .cls-1, .cls-2 {
        stroke-width: 0px;
      }

      .cls-2 {
        fill: #38ffdb;
      }
    </style>
  </defs>
  <g id="Layer_1-2" data-name="Layer 1">
    <g id="Layer_2-2" data-name="Layer 2">
      <g id="Layer_2-2" data-name="Layer 2-2">
        <path class="cls-2" d="m125,11.56C62.35,11.56,11.56,62.35,11.56,125s50.79,113.44,113.44,113.44,113.44-50.79,113.44-113.44S187.65,11.56,125,11.56h0Zm-13.96,166.03c-3.5,0-6.34-2.82-6.35-6.31,0-3.5,2.82-6.34,6.31-6.35,3.5,0,6.34,2.82,6.35,6.31,0,.01,0,.02,0,.03,0,3.48-2.83,6.3-6.31,6.31Zm28.06,0c-3.5,0-6.33-2.83-6.33-6.33,0-3.5,2.83-6.33,6.33-6.33,3.5,0,6.33,2.83,6.33,6.33,0,0,0,.01,0,.02,0,3.49-2.83,6.31-6.31,6.31,0,0-.01,0-.02,0Zm28.01,0l-2.53-19.95-2.89-22.84-2.95-23.31h-.31l-9.74,23.31-9.53,22.83h-28.13l-9.1-22.83-9.28-23.31h-.31l-3.39,23.31-3.25,22.83-2.89,19.95h-29.77l3.39-19.95,3.96-22.83,12.22-72.03h29.31l23.29,61.36,24.69-61.36h29.68l10.89,72.03,3.46,22.83,3.02,19.95h-29.85Z"/>
      </g>
    </g>
    <rect class="cls-1" width="250" height="250"/>
  </g>
</svg>