<?xml version="1.0" encoding="UTF-8"?>
<svg id="Layer_2" data-name="Layer 2" xmlns="http://www.w3.org/2000/svg" viewBox="0 0 1144.8 288">
  <defs>
    <style>
      .cls-1, .cls-2 {
        fill: #36ffdb;
      }

      .cls-2 {
        stroke-width: 0px;
      }
    </style>
  </defs>
  <g id="Layer_1-2" data-name="Layer 1">
    <g>
      <path class="cls-1" d="m286.88,126C278.03,54.96,217.43,0,144,0S9.97,54.96,1.12,126c-.74,5.9-1.12,11.9-1.12,18h288c0-6.1-.38-12.1-1.12-18Zm-221.87,0c8.18-36.08,40.44-63,78.99-63s70.81,26.92,78.99,63H65.01Zm157.98,36h63.89c-8.85,71.04-69.45,126-142.88,126S9.97,233.04,1.12,162h63.89c8.18,36.08,40.44,63,78.99,63s70.81-26.92,78.99-63Z"/>
      <g>
        <g>
          <path class="cls-2" d="m347.79,137.79l4.46-6.78c9.59,6.45,22.15,10.74,35.21,10.74,16.53,0,38.68-6.78,38.68-25.79,0-14.38-14.38-18.68-24.3-20.66l-9.92-1.65c-.5,0-.99-.17-1.49-.17-20.99-3.47-44.8-10.58-44.8-31.08,0-23.31,25.62-31.41,44.63-31.41,15.21,0,28.6,4.13,39.84,15.7l-5.79,5.62c-9.26-9.59-20.33-13.39-34.05-13.39-19.01,0-36.2,8.1-36.2,23.47,0,9.75,8.27,15.21,19.51,18.84,7.44,2.48,16.03,3.97,22.65,5.12,3.14.5,6.28.99,8.6,1.49,14.38,3.14,29.59,9.75,29.59,28.1,0,27.44-31.08,33.72-46.95,33.72-14.71,0-28.76-4.63-39.67-11.9Z"/>
          <path class="cls-2" d="m492.59,142.42c7.27,0,21.16-3.31,28.43-7.6l3.47,6.78c-8.43,4.79-23.64,8.26-31.9,8.26-20.17,0-40-14.55-40-41.16,0-28.1,16.86-42.48,40.83-42.48,25.29,0,39.01,16.86,39.18,44.8h-72.57c1.32,20.17,16.2,31.41,32.56,31.41Zm.83-68.76c-17.69,0-30.58,10.91-33.06,29.92h64.47c-1.49-16.7-11.41-29.92-31.41-29.92Z"/>
          <path class="cls-2" d="m619.04,99.11c0-12.56-3.8-25.46-23.14-25.46-14.05,0-22.65,3.64-31.9,10.41l-3.64-6.45c10.91-7.44,18.02-11.41,35.54-11.41,25.29,0,30.42,17.03,30.42,32.56v36.7c0,3.8,1.82,5.29,2.31,5.62.66.33,4.63,2.64,12.23-1.98l3.31,6.12c-5.29,3.14-10.08,4.13-13.88,4.13-2.81,0-4.96-.99-6.45-1.98-2.15-1.65-3.47-4.46-4.13-7.11-9.59,7.93-17.36,9.42-29.75,9.42-19.84,0-34.71-9.75-34.71-26.45s11.41-27.94,34.71-27.94c10.25,0,19.5,1.32,29.09,3.8Zm-29.09,3.31c-20.33,0-27.28,10.25-27.28,20.83,0,9.26,8.43,19.01,27.28,19.01,7.27,0,14.54-.66,20.66-4.63,2.81-1.82,5.79-4.3,8.26-7.11v-24.3h.17c-9.75-2.81-18.84-3.8-29.09-3.8Z"/>
          <path class="cls-2" d="m672.93,139.44v9.09h-7.6V21.59h7.6v51.41c6.94-4.13,17.19-6.78,27.11-6.78,18.68,0,41.33,11.24,41.33,40,0,27.11-21.65,43.64-41.33,43.64-10.25,0-20.66-4.79-27.11-10.41Zm-.17-57.36h.17v46.45c5.12,6.45,16.53,13.72,27.11,13.72,16.36,0,33.89-13.88,33.89-36.04s-17.52-32.56-33.89-32.56c-10.08,0-20.99,3.8-27.27,8.43Z"/>
          <path class="cls-2" d="m805.34,74.48c-9.59,0-22.65,9.92-33.72,21.82h.17v52.23h-7.6v-81.16h7.6v18.35c7.93-8.1,22.48-18.68,33.55-18.68.83,0,1.82.17,2.65.17l-.5,7.44c-.66,0-1.32-.17-2.15-.17Z"/>
          <path class="cls-2" d="m832.61,37.29c0-2.64,2.15-5.12,4.96-5.12s4.79,2.48,4.79,5.12-1.98,4.96-4.79,4.96-4.96-2.31-4.96-4.96Zm8.59,30.08v81.16h-7.44v-81.16h7.44Z"/>
          <path class="cls-2" d="m935.1,140.44c-6.45,5.12-16.86,9.42-27.28,9.42-19.01,0-40.99-12.07-40.99-39.67s20.83-43.8,40.99-43.8c10.74,0,20.99,3.64,27.44,8.1V21.59h7.44v126.95h-7.6v-8.1Zm-60.83-30.25c0,21.65,17.03,32.07,33.55,32.07,10.91,0,21.82-6.12,27.61-11.9h-.17v-46.12h.17c-6.45-5.46-16.2-10.25-27.61-10.25-16.7,0-33.55,12.89-33.55,36.2Z"/>
          <path class="cls-2" d="m1010.81,182.92c-7.11,0-17.19-.83-30.42-5.62l1.98-7.11c12.73,4.63,22.15,5.62,28.43,5.62,12.4,0,21.98-5.12,21.98-18.84v-15.04c-6.45,5.12-15.21,9.42-25.62,9.42-19.01,0-41.16-12.73-41.16-40.17s20.83-44.96,41.16-44.8c10.58,0,19.17,3.64,25.62,7.93v-6.94h7.6v91.24c-.33,17.69-12.56,24.3-29.59,24.3Zm-37.19-71.74c0,21.49,16.86,32.56,33.55,32.56,10.74,0,20.17-6.12,25.79-11.74h-.17v-47.94h.17c-6.12-5.45-14.38-10.25-25.79-10.25-16.86,0-33.55,14.05-33.55,37.36Z"/>
          <path class="cls-2" d="m1102.55,142.42c7.27,0,21.16-3.31,28.43-7.6l3.47,6.78c-8.43,4.79-23.64,8.26-31.9,8.26-20.17,0-40-14.55-40-41.16,0-28.1,16.86-42.48,40.83-42.48,25.29,0,39.01,16.86,39.18,44.8h-72.57c1.32,20.17,16.2,31.41,32.56,31.41Zm.83-68.76c-17.69,0-30.58,10.91-33.06,29.92h64.47c-1.49-16.7-11.41-29.92-31.41-29.92Z"/>
        </g>
        <g>
          <path class="cls-2" d="m347.2,208.33h20.48c16.56,0,23.6,12.96,23.6,28.88s-7.6,28.32-24.16,28.32h-19.92v-57.2Zm19.84,54.96c13.84,0,21.6-9.92,21.6-26.08s-7.2-26.56-21.04-26.56h-17.92v52.64h17.36Z"/>
          <path class="cls-2" d="m491.76,265.53h-2.48v-57.2h2.48v57.2Z"/>
          <path class="cls-2" d="m617.12,239.45v-2.24h22.4v28.32h-2.08l-.24-13.52h-.16c-1.92,7.04-8.8,14.4-20.72,14.4-17.2,0-26.56-12.72-26.56-29.36s9.36-29.6,26.64-29.6c12,0,20.24,6.56,22.24,17.2h-2.48c-1.76-9.04-9.12-14.96-19.76-14.96-16.08,0-24,12.72-24,27.36s8,27.04,23.92,27.04c13.04,0,20.72-9.2,20.72-21.76v-2.88h-19.92Z"/>
          <path class="cls-2" d="m741.52,265.53h-2.48v-57.2h2.48v57.2Z"/>
          <path class="cls-2" d="m858.56,265.53v-54.88h-20.4v-2.32h43.36v2.32h-20.4v54.88h-2.56Z"/>
          <path class="cls-2" d="m1003.84,246.01h-26.72l-7.52,19.52h-2.64l22.08-57.2h2.88l22.08,57.2h-2.64l-7.52-19.52Zm-25.92-2.16h25.04l-12.4-32.48h-.08l-12.56,32.48Z"/>
          <path class="cls-2" d="m1111.92,263.21h32.88v2.32h-35.36v-57.2h2.48v54.88Z"/>
        </g>
      </g>
    </g>
  </g>
</svg>